<svg aria-hidden="true" style="position: absolute; width: 0; height: 0; overflow: hidden;" version="1.1" xmlns="http://www.w3.org/2000/svg" xmlns:xlink="http://www.w3.org/1999/xlink">
<defs>
<symbol id="icon-film" viewBox="0 0 32 32">
<path fill="none" stroke="#fff" style="stroke: var(--color1, #fff)" stroke-linejoin="round" stroke-linecap="round" stroke-miterlimit="4" stroke-width="2.6667" d="M26.427 2.667h-20.853c-1.605 0-2.907 1.301-2.907 2.907v20.853c0 1.605 1.301 2.907 2.907 2.907h20.853c1.605 0 2.907-1.301 2.907-2.907v-20.853c0-1.605-1.301-2.907-2.907-2.907z"></path>
<path fill="none" stroke="#fff" style="stroke: var(--color1, #fff)" stroke-linejoin="round" stroke-linecap="round" stroke-miterlimit="4" stroke-width="2.6667" d="M9.333 2.667v26.667"></path>
<path fill="none" stroke="#fff" style="stroke: var(--color1, #fff)" stroke-linejoin="round" stroke-linecap="round" stroke-miterlimit="4" stroke-width="2.6667" d="M22.667 2.667v26.667"></path>
<path fill="none" stroke="#fff" style="stroke: var(--color1, #fff)" stroke-linejoin="round" stroke-linecap="round" stroke-miterlimit="4" stroke-width="2.6667" d="M2.667 16h26.667"></path>
<path fill="none" stroke="#fff" style="stroke: var(--color1, #fff)" stroke-linejoin="round" stroke-linecap="round" stroke-miterlimit="4" stroke-width="2.6667" d="M2.667 9.333h6.667"></path>
<path fill="none" stroke="#fff" style="stroke: var(--color1, #fff)" stroke-linejoin="round" stroke-linecap="round" stroke-miterlimit="4" stroke-width="2.6667" d="M2.667 22.667h6.667"></path>
<path fill="none" stroke="#fff" style="stroke: var(--color1, #fff)" stroke-linejoin="round" stroke-linecap="round" stroke-miterlimit="4" stroke-width="2.6667" d="M22.667 22.667h6.667"></path>
<path fill="none" stroke="#fff" style="stroke: var(--color1, #fff)" stroke-linejoin="round" stroke-linecap="round" stroke-miterlimit="4" stroke-width="2.6667" d="M22.667 9.333h6.667"></path>
</symbol>
<symbol id="icon-search_2" viewBox="0 0 32 32">
<path fill="none" stroke="#fff" style="stroke: var(--color1, #fff)" stroke-linejoin="round" stroke-linecap="round" stroke-miterlimit="4" stroke-width="1.3333" d="M14.667 25.333c5.891 0 10.667-4.776 10.667-10.667s-4.776-10.667-10.667-10.667c-5.891 0-10.667 4.776-10.667 10.667s4.776 10.667 10.667 10.667z"></path>
<path fill="none" stroke="#fff" style="stroke: var(--color1, #fff)" stroke-linejoin="round" stroke-linecap="round" stroke-miterlimit="4" stroke-width="1.3333" d="M28 28.001l-5.8-5.8"></path>
</symbol>
<symbol id="icon-arrow-left" viewBox="0 0 20 20">
<path d="M0 10c0-5.523 4.477-10 10-10s10 4.477 10 10v0c0 5.523-4.477 10-10 10s-10-4.477-10-10v0zM2 10c0 4.418 3.582 8 8 8s8-3.582 8-8v0c0-4.418-3.582-8-8-8s-8 3.582-8 8v0zM10 8h5v4h-5v3l-5-5 5-5v3z"></path>
</symbol>
<symbol id="icon-arrow-right" viewBox="0 0 20 20">
<path d="M20 10c0 5.523-4.477 10-10 10s-10-4.477-10-10v0c0-5.523 4.477-10 10-10s10 4.477 10 10v0zM18 10c0-4.418-3.582-8-8-8s-8 3.582-8 8v0c0 4.418 3.582 8 8 8s8-3.582 8-8v0zM10 12h-5v-4h5v-3l5 5-5 5v-3z"></path>
</symbol>
<symbol id="icon-close" viewBox="0 0 20 20">
<path d="M10 8.586l-7.071-7.071-1.414 1.414 7.071 7.071-7.071 7.071 1.414 1.414 7.071-7.071 7.071 7.071 1.414-1.414-7.071-7.071 7.071-7.071-1.414-1.414-7.071 7.071z"></path>
</symbol>
<symbol id="icon-heart" viewBox="0 0 20 20">
<path d="M10 3.22l-0.61-0.6c-0.983-0.931-2.314-1.504-3.779-1.504-3.038 0-5.5 2.462-5.5 5.5 0 1.462 0.571 2.791 1.501 3.776l-0.002-0.003 8.39 8.39 8.39-8.4c0.928-0.983 1.499-2.312 1.499-3.774 0-3.038-2.462-5.5-5.5-5.5-1.465 0-2.796 0.573-3.782 1.506l0.003-0.002-0.61 0.61z"></path>
</symbol>
</defs>
</svg>
